<mxfile host="app.diagrams.net" modified="2023-04-04T13:42:20.912Z" agent="Mozilla/5.0 (Windows NT 10.0; Win64; x64) AppleWebKit/537.36 (KHTML, like Gecko) Chrome/111.0.0.0 Safari/537.36" etag="hWc4d0dh5f6jQ78KWCwF" version="21.1.2" type="device">
  <diagram id="-L3iBQajqbCqiKy16nGl" name="Page-1">
    <mxGraphModel dx="581" dy="318" grid="1" gridSize="10" guides="1" tooltips="1" connect="1" arrows="1" fold="1" page="1" pageScale="1" pageWidth="827" pageHeight="1169" math="0" shadow="0">
      <root>
        <mxCell id="0" />
        <mxCell id="1" parent="0" />
        <mxCell id="aXKypCnKO94ALb1SA6uv-12" value="" style="verticalLabelPosition=bottom;verticalAlign=top;html=1;shape=mxgraph.basic.rect;fillColor2=none;strokeWidth=1;size=20;indent=5;dashed=1;dashPattern=1 2;" parent="1" vertex="1">
          <mxGeometry x="360" y="213" width="121" height="110" as="geometry" />
        </mxCell>
        <mxCell id="aXKypCnKO94ALb1SA6uv-3" value="" style="verticalLabelPosition=bottom;verticalAlign=top;html=1;shape=mxgraph.basic.rect;fillColor2=none;strokeWidth=1;size=20;indent=5;dashed=1;dashPattern=1 2;" parent="1" vertex="1">
          <mxGeometry x="80" y="190" width="120" height="69" as="geometry" />
        </mxCell>
        <mxCell id="aXKypCnKO94ALb1SA6uv-1" value="Client-A1" style="ellipse;whiteSpace=wrap;html=1;fillColor=#d5e8d4;strokeColor=#82b366;" parent="1" vertex="1">
          <mxGeometry x="85.25" y="193" width="60" height="20" as="geometry" />
        </mxCell>
        <mxCell id="aXKypCnKO94ALb1SA6uv-2" value="Client-A2" style="ellipse;whiteSpace=wrap;html=1;fillColor=#d5e8d4;strokeColor=#82b366;" parent="1" vertex="1">
          <mxGeometry x="85.25" y="226" width="60" height="20" as="geometry" />
        </mxCell>
        <mxCell id="aXKypCnKO94ALb1SA6uv-4" value="" style="verticalLabelPosition=bottom;verticalAlign=top;html=1;shape=mxgraph.basic.rect;fillColor2=none;strokeWidth=1;size=20;indent=5;dashed=1;dashPattern=1 2;" parent="1" vertex="1">
          <mxGeometry x="80" y="290" width="120" height="60" as="geometry" />
        </mxCell>
        <mxCell id="aXKypCnKO94ALb1SA6uv-5" value="Client-B1" style="ellipse;whiteSpace=wrap;html=1;fillColor=#d5e8d4;strokeColor=#82b366;" parent="1" vertex="1">
          <mxGeometry x="85" y="291.75" width="58" height="16.5" as="geometry" />
        </mxCell>
        <mxCell id="aXKypCnKO94ALb1SA6uv-6" value="Client-B2" style="ellipse;whiteSpace=wrap;html=1;fillColor=#d5e8d4;strokeColor=#82b366;" parent="1" vertex="1">
          <mxGeometry x="85" y="320" width="58" height="18" as="geometry" />
        </mxCell>
        <mxCell id="aXKypCnKO94ALb1SA6uv-13" value="" style="verticalLabelPosition=bottom;verticalAlign=top;html=1;shape=mxgraph.basic.rect;fillColor2=none;strokeWidth=1;size=20;indent=5;dashed=1;dashPattern=1 2;" parent="1" vertex="1">
          <mxGeometry x="210" y="190" width="140" height="160" as="geometry" />
        </mxCell>
        <mxCell id="aXKypCnKO94ALb1SA6uv-7" value="Gateway-A" style="rounded=1;whiteSpace=wrap;html=1;fillColor=#ffe6cc;strokeColor=#d79b00;" parent="1" vertex="1">
          <mxGeometry x="160" y="182" width="62.5" height="26" as="geometry" />
        </mxCell>
        <mxCell id="aXKypCnKO94ALb1SA6uv-8" value="Gateway-B" style="rounded=1;whiteSpace=wrap;html=1;fillColor=#ffe6cc;strokeColor=#d79b00;" parent="1" vertex="1">
          <mxGeometry x="160" y="332" width="65" height="24" as="geometry" />
        </mxCell>
        <mxCell id="aXKypCnKO94ALb1SA6uv-9" value="Router" style="rounded=1;whiteSpace=wrap;html=1;fillColor=#dae8fc;strokeColor=#6c8ebf;" parent="1" vertex="1">
          <mxGeometry x="240" y="255" width="65" height="26" as="geometry" />
        </mxCell>
        <mxCell id="aXKypCnKO94ALb1SA6uv-10" value="Gateway-S" style="rounded=1;whiteSpace=wrap;html=1;fillColor=#ffe6cc;strokeColor=#d79b00;" parent="1" vertex="1">
          <mxGeometry x="329" y="255" width="70" height="26" as="geometry" />
        </mxCell>
        <mxCell id="aXKypCnKO94ALb1SA6uv-11" value="Server-S1" style="ellipse;whiteSpace=wrap;html=1;fillColor=#d5e8d4;strokeColor=#82b366;" parent="1" vertex="1">
          <mxGeometry x="408" y="216" width="70" height="89" as="geometry" />
        </mxCell>
        <mxCell id="aXKypCnKO94ALb1SA6uv-14" value="" style="endArrow=none;html=1;rounded=0;exitX=1;exitY=0.5;exitDx=0;exitDy=0;entryX=0.5;entryY=1;entryDx=0;entryDy=0;" parent="1" source="aXKypCnKO94ALb1SA6uv-8" target="aXKypCnKO94ALb1SA6uv-9" edge="1">
          <mxGeometry width="50" height="50" relative="1" as="geometry">
            <mxPoint x="360" y="330" as="sourcePoint" />
            <mxPoint x="410" y="280" as="targetPoint" />
          </mxGeometry>
        </mxCell>
        <mxCell id="aXKypCnKO94ALb1SA6uv-15" value="" style="endArrow=none;html=1;rounded=0;exitX=1;exitY=0.5;exitDx=0;exitDy=0;entryX=0;entryY=0.5;entryDx=0;entryDy=0;" parent="1" source="aXKypCnKO94ALb1SA6uv-9" target="aXKypCnKO94ALb1SA6uv-10" edge="1">
          <mxGeometry width="50" height="50" relative="1" as="geometry">
            <mxPoint x="258.48" y="371.02" as="sourcePoint" />
            <mxPoint x="350" y="290" as="targetPoint" />
          </mxGeometry>
        </mxCell>
        <mxCell id="aXKypCnKO94ALb1SA6uv-16" value="" style="endArrow=none;html=1;rounded=0;entryX=0.5;entryY=0;entryDx=0;entryDy=0;exitX=1;exitY=0.5;exitDx=0;exitDy=0;" parent="1" source="aXKypCnKO94ALb1SA6uv-7" target="aXKypCnKO94ALb1SA6uv-9" edge="1">
          <mxGeometry width="50" height="50" relative="1" as="geometry">
            <mxPoint x="239" y="221" as="sourcePoint" />
            <mxPoint x="339" y="237" as="targetPoint" />
          </mxGeometry>
        </mxCell>
        <mxCell id="aXKypCnKO94ALb1SA6uv-17" value="&lt;b&gt;Site A&lt;/b&gt;&lt;br&gt;10.1.0.0/16" style="text;html=1;strokeColor=none;fillColor=none;align=center;verticalAlign=middle;whiteSpace=wrap;rounded=0;fontColor=#0066CC;" parent="1" vertex="1">
          <mxGeometry x="80" y="160" width="60" height="30" as="geometry" />
        </mxCell>
        <mxCell id="aXKypCnKO94ALb1SA6uv-18" value="&lt;b&gt;Site B&lt;/b&gt;&lt;br&gt;10.1.0.0/16" style="text;html=1;strokeColor=none;fillColor=none;align=center;verticalAlign=middle;whiteSpace=wrap;rounded=0;fontColor=#0066CC;" parent="1" vertex="1">
          <mxGeometry x="80" y="260" width="60" height="30" as="geometry" />
        </mxCell>
        <mxCell id="aXKypCnKO94ALb1SA6uv-20" value="&lt;span style=&quot;border-color: var(--border-color);&quot;&gt;&lt;b&gt;Public Internet&lt;/b&gt;&lt;br&gt;&lt;font color=&quot;#ff3333&quot;&gt;eth0&lt;/font&gt;&lt;br&gt;&lt;/span&gt;" style="text;html=1;strokeColor=none;fillColor=none;align=center;verticalAlign=middle;whiteSpace=wrap;rounded=0;fontColor=#0066CC;" parent="1" vertex="1">
          <mxGeometry x="278" y="180" width="95" height="20" as="geometry" />
        </mxCell>
        <mxCell id="aXKypCnKO94ALb1SA6uv-21" value="" style="endArrow=none;html=1;rounded=0;exitX=0.5;exitY=0;exitDx=0;exitDy=0;entryX=0.779;entryY=-0.009;entryDx=0;entryDy=0;entryPerimeter=0;" parent="1" source="aXKypCnKO94ALb1SA6uv-9" target="aXKypCnKO94ALb1SA6uv-13" edge="1">
          <mxGeometry width="50" height="50" relative="1" as="geometry">
            <mxPoint x="258.48" y="371.02" as="sourcePoint" />
            <mxPoint x="350" y="290" as="targetPoint" />
          </mxGeometry>
        </mxCell>
        <mxCell id="aXKypCnKO94ALb1SA6uv-22" value="&lt;b&gt;Cloud S&lt;br&gt;&lt;/b&gt;10.1.0.0/16" style="text;html=1;strokeColor=none;fillColor=none;align=center;verticalAlign=middle;whiteSpace=wrap;rounded=0;fontColor=#0066CC;" parent="1" vertex="1">
          <mxGeometry x="421" y="183" width="60" height="30" as="geometry" />
        </mxCell>
        <mxCell id="aXKypCnKO94ALb1SA6uv-23" value="&lt;font color=&quot;#000000&quot;&gt;10.1.0.2&lt;/font&gt;" style="text;html=1;strokeColor=none;fillColor=none;align=center;verticalAlign=middle;whiteSpace=wrap;rounded=0;fontColor=#999999;" parent="1" vertex="1">
          <mxGeometry x="85" y="217" width="59.75" height="6" as="geometry" />
        </mxCell>
        <mxCell id="aXKypCnKO94ALb1SA6uv-24" value="&lt;font color=&quot;#000000&quot;&gt;10.1.0.3&lt;/font&gt;" style="text;html=1;strokeColor=none;fillColor=none;align=center;verticalAlign=middle;whiteSpace=wrap;rounded=0;fontColor=#999999;" parent="1" vertex="1">
          <mxGeometry x="83.5" y="250" width="61" height="5" as="geometry" />
        </mxCell>
        <mxCell id="aXKypCnKO94ALb1SA6uv-25" value="&lt;font color=&quot;#000000&quot;&gt;10.1.0.2&lt;/font&gt;" style="text;html=1;strokeColor=none;fillColor=none;align=center;verticalAlign=middle;whiteSpace=wrap;rounded=0;fontColor=#999999;" parent="1" vertex="1">
          <mxGeometry x="90" y="310" width="48" height="8" as="geometry" />
        </mxCell>
        <mxCell id="aXKypCnKO94ALb1SA6uv-26" value="&lt;font color=&quot;#000000&quot;&gt;10.1.0.3&lt;/font&gt;" style="text;html=1;strokeColor=none;fillColor=none;align=center;verticalAlign=middle;whiteSpace=wrap;rounded=0;fontColor=#999999;" parent="1" vertex="1">
          <mxGeometry x="90.75" y="340.5" width="46.5" height="7" as="geometry" />
        </mxCell>
        <mxCell id="aXKypCnKO94ALb1SA6uv-27" value="&lt;font color=&quot;#000000&quot;&gt;10.1.0.2&lt;/font&gt;" style="text;html=1;strokeColor=none;fillColor=none;align=center;verticalAlign=middle;whiteSpace=wrap;rounded=0;fontColor=#999999;" parent="1" vertex="1">
          <mxGeometry x="407" y="303" width="70" height="20" as="geometry" />
        </mxCell>
        <mxCell id="aXKypCnKO94ALb1SA6uv-28" value="&lt;font color=&quot;#ff9933&quot;&gt;eth0&lt;br&gt;&lt;/font&gt;&lt;font color=&quot;#000000&quot;&gt;10.1.0.1&lt;/font&gt;" style="text;html=1;strokeColor=none;fillColor=none;align=center;verticalAlign=middle;whiteSpace=wrap;rounded=0;fontColor=#999999;" parent="1" vertex="1">
          <mxGeometry x="145" y="210" width="58" height="20" as="geometry" />
        </mxCell>
        <mxCell id="aXKypCnKO94ALb1SA6uv-29" value="&lt;font color=&quot;#000000&quot;&gt;10.1.0.1&lt;/font&gt;" style="text;html=1;strokeColor=none;fillColor=none;align=center;verticalAlign=middle;whiteSpace=wrap;rounded=0;fontColor=#999999;" parent="1" vertex="1">
          <mxGeometry x="147.25" y="289" width="58" height="20" as="geometry" />
        </mxCell>
        <mxCell id="aXKypCnKO94ALb1SA6uv-30" value="&lt;font color=&quot;#000000&quot;&gt;10.1.0.1&lt;/font&gt;&lt;br&gt;&lt;span style=&quot;color: rgb(255, 153, 51);&quot;&gt;eth0&lt;/span&gt;" style="text;html=1;strokeColor=none;fillColor=none;align=center;verticalAlign=middle;whiteSpace=wrap;rounded=0;fontColor=#999999;" parent="1" vertex="1">
          <mxGeometry x="353" y="230" width="58" height="20" as="geometry" />
        </mxCell>
        <mxCell id="aXKypCnKO94ALb1SA6uv-31" value="172.16.16.1&lt;br&gt;&lt;font color=&quot;#ff3333&quot;&gt;eth1&lt;/font&gt;" style="text;html=1;strokeColor=none;fillColor=none;align=center;verticalAlign=middle;whiteSpace=wrap;rounded=0;fontColor=#009999;" parent="1" vertex="1">
          <mxGeometry x="208" y="226" width="70" height="20" as="geometry" />
        </mxCell>
        <mxCell id="aXKypCnKO94ALb1SA6uv-34" value="&lt;font color=&quot;#ff3333&quot;&gt;eth2&lt;/font&gt;&lt;br&gt;172.18.18.1" style="text;html=1;strokeColor=none;fillColor=none;align=center;verticalAlign=middle;whiteSpace=wrap;rounded=0;fontColor=#009999;" parent="1" vertex="1">
          <mxGeometry x="210" y="290" width="70" height="20" as="geometry" />
        </mxCell>
        <mxCell id="aXKypCnKO94ALb1SA6uv-35" value="172.30.30.1&lt;br&gt;&lt;font color=&quot;#ff3333&quot;&gt;eth3&lt;/font&gt;" style="text;html=1;strokeColor=none;fillColor=none;align=center;verticalAlign=middle;whiteSpace=wrap;rounded=0;fontColor=#009999;" parent="1" vertex="1">
          <mxGeometry x="281.5" y="242.5" width="70" height="20" as="geometry" />
        </mxCell>
        <mxCell id="aXKypCnKO94ALb1SA6uv-37" value="&lt;span style=&quot;color: rgb(255, 153, 51);&quot;&gt;eth1&lt;/span&gt;&lt;br&gt;&lt;font color=&quot;#000000&quot;&gt;172.30.30.30&lt;/font&gt;" style="text;html=1;strokeColor=none;fillColor=none;align=center;verticalAlign=middle;whiteSpace=wrap;rounded=0;fontColor=#999999;" parent="1" vertex="1">
          <mxGeometry x="280" y="278" width="70" height="20" as="geometry" />
        </mxCell>
        <mxCell id="aXKypCnKO94ALb1SA6uv-38" value="&lt;span style=&quot;color: rgb(255, 153, 51);&quot;&gt;eth1&lt;/span&gt;&lt;br&gt;&lt;font color=&quot;#000000&quot;&gt;172.16.16.16&lt;/font&gt;" style="text;html=1;strokeColor=none;fillColor=none;align=center;verticalAlign=middle;whiteSpace=wrap;rounded=0;fontColor=#999999;" parent="1" vertex="1">
          <mxGeometry x="223" y="180" width="75" height="20" as="geometry" />
        </mxCell>
        <mxCell id="aXKypCnKO94ALb1SA6uv-40" value="&lt;font color=&quot;#000000&quot;&gt;172.18.18.18&lt;/font&gt;&lt;br&gt;&lt;span style=&quot;color: rgb(255, 153, 51);&quot;&gt;eth1&lt;/span&gt;" style="text;html=1;strokeColor=none;fillColor=none;align=center;verticalAlign=middle;whiteSpace=wrap;rounded=0;fontColor=#999999;" parent="1" vertex="1">
          <mxGeometry x="224" y="340.5" width="75" height="20" as="geometry" />
        </mxCell>
        <mxCell id="8ddHJlEhwti3hABUpaHy-3" value="&lt;b&gt;&lt;font color=&quot;#000000&quot;&gt;10.1.0.99&lt;/font&gt;&lt;/b&gt;" style="text;html=1;strokeColor=none;fillColor=none;align=center;verticalAlign=middle;whiteSpace=wrap;rounded=0;fontColor=#999999;" parent="1" vertex="1">
          <mxGeometry x="143.5" y="230" width="61" height="20" as="geometry" />
        </mxCell>
        <mxCell id="8ddHJlEhwti3hABUpaHy-4" value="&lt;b&gt;&lt;font color=&quot;#000000&quot;&gt;10.1.0.99&lt;/font&gt;&lt;/b&gt;&lt;br&gt;&lt;font color=&quot;#ff9933&quot;&gt;eth0&lt;/font&gt;" style="text;html=1;strokeColor=none;fillColor=none;align=center;verticalAlign=middle;whiteSpace=wrap;rounded=0;fontColor=#999999;" parent="1" vertex="1">
          <mxGeometry x="144.25" y="309" width="61" height="20" as="geometry" />
        </mxCell>
        <mxCell id="i7L1LLbgNS6fSiVqBptD-1" value="&lt;font style=&quot;font-size: 9px;&quot;&gt;container 1&lt;/font&gt;" style="ellipse;whiteSpace=wrap;html=1;fillColor=#e1d5e7;strokeColor=#9673a6;" parent="1" vertex="1">
          <mxGeometry x="418" y="234" width="50" height="20" as="geometry" />
        </mxCell>
        <mxCell id="i7L1LLbgNS6fSiVqBptD-3" value="&lt;font style=&quot;font-size: 9px;&quot;&gt;container 2&lt;/font&gt;" style="ellipse;whiteSpace=wrap;html=1;fillColor=#e1d5e7;strokeColor=#9673a6;" parent="1" vertex="1">
          <mxGeometry x="418" y="267" width="50" height="22" as="geometry" />
        </mxCell>
        <mxCell id="i7L1LLbgNS6fSiVqBptD-4" value="&lt;font style=&quot;font-size: 8px;&quot; color=&quot;#ff0080&quot;&gt;port 30000&lt;/font&gt;" style="text;html=1;strokeColor=none;fillColor=none;align=center;verticalAlign=middle;whiteSpace=wrap;rounded=0;fontColor=#999999;" parent="1" vertex="1">
          <mxGeometry x="415.5" y="222" width="55" height="12" as="geometry" />
        </mxCell>
        <mxCell id="i7L1LLbgNS6fSiVqBptD-5" value="&lt;font style=&quot;font-size: 8px;&quot; color=&quot;#ff0080&quot;&gt;port 30001&lt;/font&gt;" style="text;html=1;strokeColor=none;fillColor=none;align=center;verticalAlign=middle;whiteSpace=wrap;rounded=0;fontColor=#999999;" parent="1" vertex="1">
          <mxGeometry x="416.5" y="286" width="55" height="12" as="geometry" />
        </mxCell>
        <mxCell id="i7L1LLbgNS6fSiVqBptD-6" value="&lt;font style=&quot;font-size: 8px;&quot; color=&quot;#ff0080&quot;&gt;8080&lt;/font&gt;" style="text;html=1;strokeColor=none;fillColor=none;align=center;verticalAlign=middle;whiteSpace=wrap;rounded=0;fontColor=#999999;" parent="1" vertex="1">
          <mxGeometry x="426.75" y="232" width="32.5" height="10" as="geometry" />
        </mxCell>
        <mxCell id="i7L1LLbgNS6fSiVqBptD-7" value="&lt;font style=&quot;font-size: 8px;&quot; color=&quot;#ff0080&quot;&gt;8080&lt;/font&gt;" style="text;html=1;strokeColor=none;fillColor=none;align=center;verticalAlign=middle;whiteSpace=wrap;rounded=0;fontColor=#999999;" parent="1" vertex="1">
          <mxGeometry x="426.75" y="279" width="32.5" height="10" as="geometry" />
        </mxCell>
      </root>
    </mxGraphModel>
  </diagram>
</mxfile>
